<?xml version="1.0" standalone="no"?>
<!DOCTYPE svg PUBLIC "-//W3C//DTD SVG 20010904//EN"
 "http://www.w3.org/TR/2001/REC-SVG-20010904/DTD/svg10.dtd">
<svg version="1.0" xmlns="http://www.w3.org/2000/svg"
 width="260.000000pt" height="260.000000pt" viewBox="0 0 260.000000 260.000000"
 preserveAspectRatio="xMidYMid meet">
<metadata>
Created by potrace 1.11, written by Peter Selinger 2001-2013
</metadata>
<g transform="translate(0.000000,260.000000) scale(0.100000,-0.100000)"
fill="#000000" stroke="none">
<path d="M605 2036 c-101 -48 -155 -130 -155 -234 0 -75 16 -116 66 -172 53
-58 106 -83 183 -86 62 -3 64 -4 86 -41 12 -21 85 -148 163 -282 78 -134 142
-245 142 -248 0 -2 -12 -21 -26 -43 -32 -48 -43 -139 -24 -205 28 -100 145
-185 253 -185 85 0 197 78 232 162 8 21 15 67 15 104 0 56 -5 76 -29 119 l-29
51 119 204 c65 113 140 242 167 287 l47 82 50 1 c226 4 339 260 186 423 -66
72 -187 96 -279 57 -56 -24 -116 -83 -138 -136 -24 -56 -18 -145 13 -209 l28
-56 -19 -32 c-24 -40 -104 -178 -221 -380 l-89 -155 -58 -4 -57 -3 -62 105
c-34 58 -83 141 -109 185 -25 44 -73 124 -104 178 l-58 98 31 58 c25 48 31 71
31 120 0 75 -16 115 -67 171 -77 87 -190 112 -288 66z"/>
</g>
</svg>
